<?xml version="1.0" standalone="no"?>
<!DOCTYPE svg PUBLIC "-//W3C//DTD SVG 20010904//EN"
 "http://www.w3.org/TR/2001/REC-SVG-20010904/DTD/svg10.dtd">
<svg version="1.0" xmlns="http://www.w3.org/2000/svg"
 width="500.000000pt" height="500.000000pt" viewBox="0 0 500.000000 500.000000"
 preserveAspectRatio="xMidYMid meet">

<g transform="translate(0.000000,500.000000) scale(0.100000,-0.100000)"
fill="#000000" stroke="none">
<path d="M1495 4125 c-145 -27 -234 -74 -341 -180 -96 -95 -146 -186 -169
-308 -22 -116 -22 -2064 0 -2178 33 -172 111 -302 240 -399 70 -52 140 -86
226 -110 72 -19 100 -20 1045 -20 932 0 974 1 1047 20 128 32 201 74 297 170
90 90 132 159 167 275 16 56 18 138 21 1115 2 746 0 1073 -8 1115 -24 130 -73
228 -158 317 -98 103 -214 165 -353 187 -101 17 -1924 13 -2014 -4z m533
-1622 l-3 -1098 -65 0 -65 0 -3 1098 -2 1097 70 0 70 0 -2 -1097z m1070 0 l-3
-1098 -62 -3 -63 -3 0 1063 c0 585 -3 1080 -6 1101 l-7 37 72 0 71 0 -2 -1097z
m-1374 721 c18 -18 18 -14 21 -319 3 -243 -3 -302 -31 -322 -13 -10 -82 -13
-275 -13 l-258 0 -21 27 c-20 26 -21 34 -18 318 2 229 6 296 17 308 12 15 44
17 282 17 230 0 270 -2 283 -16z m1066 -3 c5 -11 10 -42 10 -70 0 -83 8 -81
-305 -81 -311 0 -295 -5 -295 85 0 90 -17 85 300 85 266 0 280 -1 290 -19z
m1046 5 c17 -13 19 -30 22 -206 3 -162 1 -195 -13 -216 l-15 -24 -280 0 c-266
0 -280 1 -290 19 -6 12 -10 101 -10 220 0 180 2 201 18 210 10 6 121 11 283
11 213 0 269 -3 285 -14z m-1054 -393 c16 -15 18 -35 18 -213 0 -184 -1 -199
-21 -224 l-20 -26 -259 0 -259 0 -20 26 c-20 25 -21 40 -21 222 0 168 2 198
17 214 15 17 37 18 281 18 233 0 268 -2 284 -17z m1059 -290 c11 -13 14 -67
14 -255 l0 -240 -24 -19 c-23 -19 -38 -20 -287 -17 -250 3 -264 4 -278 23 -13
17 -15 62 -16 261 0 174 3 243 12 252 9 9 87 12 289 12 245 0 278 -2 290 -17z"/>
</g>
</svg>
